<?xml version="1.0" encoding="UTF-8"?>
<svg id="Layer_1" data-name="Layer 1" xmlns="http://www.w3.org/2000/svg" version="1.1" viewBox="0 0 1280 769">
  <defs>
    <style>
      .cls-1 {
        fill: #0092d5;
      }

      .cls-1, .cls-2, .cls-3 {
        stroke-width: 0px;
      }

      .cls-2 {
        fill: #044e70;
      }

      .cls-3 {
        fill: #fff;
      }
    </style>
  </defs>
  <circle class="cls-1" cx="640" cy="384.5" r="144.89"/>
  <path class="cls-1" d="M640,606.8c-122.57,0-222.3-99.72-222.3-222.3s99.72-222.3,222.3-222.3,222.3,99.72,222.3,222.3-99.72,222.3-222.3,222.3ZM640,165.24c-120.9,0-219.26,98.36-219.26,219.26s98.36,219.26,219.26,219.26,219.26-98.36,219.26-219.26-98.36-219.26-219.26-219.26Z"/>
  <path class="cls-1" d="M640,618.27c-128.9,0-233.77-104.87-233.77-233.77s104.87-233.77,233.77-233.77,233.77,104.87,233.77,233.77-104.87,233.77-233.77,233.77ZM640,158.64c-124.54,0-225.86,101.32-225.86,225.86s101.32,225.86,225.86,225.86,225.86-101.32,225.86-225.86-101.32-225.86-225.86-225.86Z"/>
  <g>
    <path class="cls-2" d="M476.23,376.04l-38.05-6.99,3.9-21.24c.86-4.68,2.34-8.58,4.44-11.71,2.1-3.12,4.73-5.32,7.9-6.61,3.17-1.28,6.78-1.55,10.84-.81,4.09.75,7.38,2.29,9.87,4.61,2.49,2.33,4.16,5.32,5.01,8.98.85,3.66.85,7.84-.01,12.52l-3.9,21.24ZM469.94,363.28l1.72-9.35c.32-1.77.39-3.41.19-4.91s-.63-2.85-1.29-4.04c-.66-1.19-1.56-2.18-2.71-2.98-1.15-.8-2.52-1.35-4.1-1.64l-1.27-.23c-1.59-.29-3.05-.26-4.39.08-1.34.35-2.53.96-3.57,1.83-1.04.88-1.92,1.98-2.64,3.32-.72,1.33-1.25,2.89-1.57,4.66l-1.72,9.35,21.35,3.92Z"/>
    <path class="cls-2" d="M455.65,295.41l-3.65-9.23,5.26-10.19.25.13,2.01,11.8-3.87,7.49ZM486.52,327.3l-34.37-17.75,18.48-35.77,7.54,3.9-13.21,25.58,5.8,2.99,11.56-22.38,7.29,3.77-11.56,22.38,6.19,3.2,13.42-25.98,7.54,3.9-18.68,36.17Z"/>
    <path class="cls-2" d="M508.32,286.88l-27.88-26.82,22.03-22.9c1.45-1.51,3.06-2.6,4.81-3.25,1.75-.66,3.48-.85,5.2-.58,1.71.27,3.26,1.07,4.64,2.4,1.22,1.17,2.05,2.39,2.5,3.65.45,1.26.59,2.53.41,3.79-.17,1.26-.56,2.47-1.14,3.62l.16.16c1.23-.84,2.52-1.42,3.88-1.73,1.36-.3,2.75-.24,4.16.18,1.41.42,2.8,1.28,4.15,2.58,1.6,1.53,2.58,3.23,2.96,5.07.38,1.85.24,3.71-.41,5.58-.65,1.87-1.76,3.61-3.32,5.23l-22.14,23.02ZM499.37,262.43l10.92-11.35c.6-.62.99-1.26,1.18-1.91.19-.65.19-1.3.02-1.93-.17-.63-.54-1.22-1.11-1.77-.78-.75-1.67-1.09-2.66-1-.99.09-1.88.53-2.66,1.34l-11.03,11.47,5.35,5.15ZM510.36,273l11.58-12.04c.83-.86,1.27-1.79,1.32-2.79.05-.99-.42-1.96-1.39-2.9-.51-.49-1.08-.82-1.71-.98-.63-.16-1.27-.12-1.95.12-.67.24-1.32.68-1.94,1.33l-11.46,11.91,5.55,5.34Z"/>
    <path class="cls-2" d="M563.72,241.66c-4.56,2.44-8.9,3.86-13,4.24-4.11.39-7.77-.24-11-1.9-3.22-1.66-5.83-4.33-7.81-8.04-1.98-3.7-2.76-7.35-2.35-10.95.41-3.6,1.92-7,4.52-10.2,2.6-3.2,6.19-6.02,10.75-8.46,4.63-2.47,8.99-3.9,13.08-4.28,4.09-.38,7.75.26,10.97,1.91,3.22,1.66,5.83,4.33,7.81,8.04,1.98,3.7,2.76,7.35,2.35,10.95-.41,3.6-1.91,7-4.5,10.19-2.59,3.19-6.19,6.02-10.82,8.5ZM559.71,234.17c1.78-.95,3.3-2.04,4.54-3.26,1.24-1.22,2.17-2.52,2.79-3.91.62-1.39.89-2.85.82-4.36-.07-1.52-.5-3.02-1.29-4.5l-.64-1.19c-.78-1.45-1.77-2.62-2.99-3.5-1.22-.88-2.57-1.45-4.07-1.71-1.5-.26-3.1-.21-4.8.14-1.7.36-3.44,1.01-5.23,1.97-1.79.95-3.29,2.04-4.51,3.24-1.22,1.21-2.15,2.51-2.79,3.91-.63,1.4-.91,2.85-.84,4.34.07,1.49.5,2.96,1.28,4.42l.64,1.19c.8,1.49,1.8,2.69,3,3.59,1.21.91,2.57,1.49,4.09,1.74,1.52.25,3.12.2,4.8-.14,1.68-.35,3.42-1,5.2-1.95Z"/>
    <path class="cls-2" d="M613.09,224.82c-5.03.84-9.31.81-12.84-.1-3.54-.91-6.35-2.62-8.44-5.14-2.09-2.52-3.47-5.74-4.12-9.66l-3.38-20.19,11.26-1.88,3.29,19.69c.57,3.4,1.97,5.88,4.21,7.45,2.24,1.56,5.11,2.05,8.63,1.46s6.07-1.98,7.68-4.19c1.61-2.21,2.13-5.01,1.56-8.41l-3.29-19.69,11.31-1.89,3.38,20.19c.66,3.92.4,7.41-.76,10.47-1.16,3.06-3.27,5.6-6.34,7.62-3.06,2.01-7.11,3.44-12.14,4.28Z"/>
    <path class="cls-2" d="M664.29,224.4c-5.34-.77-9.68-2.17-13.03-4.19-3.35-2.02-5.69-4.62-7.05-7.81-1.36-3.19-1.72-6.95-1.09-11.29.92-6.34,3.68-10.93,8.27-13.77,4.6-2.84,10.82-3.69,18.69-2.55,4.38.63,8.14,1.85,11.29,3.65,3.15,1.8,5.49,4.03,7.01,6.7,1.53,2.66,2.05,5.63,1.58,8.89l-11.02-1.6c.23-1.6-.05-3.03-.83-4.3-.78-1.27-1.98-2.33-3.6-3.19-1.62-.86-3.56-1.45-5.82-1.78-2.67-.39-4.98-.26-6.93.39-1.95.65-3.51,1.7-4.69,3.16-1.18,1.46-1.92,3.24-2.22,5.36l-.2,1.39c-.31,2.11-.1,4.05.61,5.8.71,1.75,1.9,3.21,3.57,4.38,1.67,1.17,3.8,1.94,6.4,2.32,2.45.35,4.6.37,6.44.05,1.85-.32,3.32-.97,4.43-1.94,1.11-.98,1.77-2.24,2-3.8l10.8,1.56c-.46,3.15-1.77,5.79-3.93,7.9-2.16,2.11-5,3.59-8.51,4.42-3.51.84-7.57.92-12.17.26Z"/>
    <path class="cls-2" d="M691.58,228.55l17.2-34.65,10.22,5.08-6.4,12.89,20.8,10.33,6.4-12.89,10.22,5.08-17.2,34.65-10.22-5.08,6.7-13.5-20.8-10.33-6.7,13.5-10.22-5.08Z"/>
    <path class="cls-2" d="M735.46,250.47l40.63-14.39,9.13,8.92-13.44,40.95-8.89-8.68,2.23-6.47-14.8-14.46-6.41,2.38-8.44-8.25ZM758.91,253.02l9.33,9.12,3.01-8.07c.13-.35.33-.85.6-1.5.27-.65.55-1.34.85-2.08.3-.73.58-1.4.85-2,.27-.6.46-1.06.56-1.38l-.28-.28c-.66.3-1.44.64-2.33,1.02-.9.38-1.75.76-2.55,1.12s-1.48.65-2.04.84l-8,3.19Z"/>
    <path class="cls-2" d="M781.8,306.29c-3.71-6.9-5.04-12.86-3.99-17.87,1.05-5.01,4.54-9.12,10.49-12.31,3.86-2.08,7.59-2.92,11.18-2.53,3.59.39,6.96,1.93,10.11,4.62,3.15,2.69,6,6.41,8.56,11.17,1.58,2.94,2.78,5.82,3.59,8.64.81,2.82,1.2,5.46,1.17,7.93-.04,2.47-.57,4.65-1.62,6.55-1.04,1.9-2.64,3.43-4.78,4.58l-5.27-9.8c.92-.5,1.57-1.22,1.94-2.16.37-.94.5-2.02.39-3.24-.1-1.22-.39-2.52-.84-3.89-.46-1.37-1.06-2.75-1.81-4.14-1.06-1.98-2.22-3.66-3.47-5.03-1.25-1.37-2.58-2.4-3.99-3.09-1.41-.69-2.87-1-4.37-.94-1.5.06-3.04.52-4.63,1.37l-1.19.64c-2.25,1.21-3.82,2.65-4.73,4.33-.91,1.68-1.21,3.59-.91,5.72.3,2.14,1.14,4.49,2.53,7.07,1.26,2.34,2.55,4.26,3.88,5.73,1.33,1.48,2.65,2.45,3.96,2.91s2.52.4,3.61-.18l.3-.16-6.39-11.88,6.49-3.49,11.72,21.79-19.02,10.23-3.17-5.89,3.56-3.12c-1.75-.72-3.41-1.71-4.98-2.97-1.57-1.26-3.05-2.78-4.42-4.55-1.38-1.77-2.67-3.78-3.88-6.02Z"/>
    <path class="cls-2" d="M796.2,335.2l38.02-7.13,7.42,39.57-8.34,1.56-5.31-28.3-6.41,1.2,4.64,24.76-8.07,1.51-4.64-24.76-6.85,1.29,5.39,28.74-8.35,1.57-7.5-40.01Z"/>
  </g>
  <g>
    <path class="cls-2" d="M470.26,486.18c-1.13-1.89-2.07-3.73-2.82-5.51s-1.22-3.45-1.39-5.03c-.18-1.57.04-3.01.63-4.31.6-1.3,1.67-2.41,3.23-3.34.04-.03.1-.06.17-.1.07-.04.14-.07.22-.09l4.02,6.76c-.1.03-.2.07-.3.11-.1.04-.2.1-.31.16-.7.42-1.09,1.01-1.17,1.77-.08.76.08,1.67.49,2.71.41,1.04.99,2.2,1.75,3.49.31.52.64,1.04,1.01,1.57.36.53.74,1.03,1.12,1.5.39.47.78.87,1.19,1.19.41.32.8.53,1.17.63.38.1.75.04,1.11-.18.47-.28.7-.76.68-1.43-.02-.68-.21-1.51-.57-2.5-.36-.99-.8-2.07-1.31-3.25-.52-1.17-1.03-2.4-1.53-3.69-.51-1.29-.92-2.58-1.25-3.88-.33-1.3-.49-2.55-.47-3.75.02-1.2.3-2.31.85-3.34.55-1.03,1.43-1.9,2.65-2.63,1.24-.74,2.49-1.06,3.75-.97,1.26.09,2.52.52,3.77,1.3,1.26.78,2.48,1.85,3.67,3.21,1.19,1.37,2.33,2.95,3.4,4.75,1.1,1.85,1.95,3.61,2.55,5.28.6,1.67.93,3.21.99,4.63.06,1.41-.17,2.66-.69,3.75-.52,1.09-1.37,1.99-2.54,2.68l-.47.28-3.96-6.66.27-.16c.47-.28.77-.74.9-1.36s.07-1.39-.18-2.3c-.25-.9-.7-1.91-1.36-3.01-.79-1.33-1.53-2.37-2.2-3.13-.68-.76-1.28-1.25-1.8-1.49-.52-.24-.96-.25-1.32-.03-.45.27-.65.74-.6,1.41.05.67.26,1.49.62,2.47s.81,2.04,1.32,3.22c.52,1.17,1.03,2.4,1.56,3.69.52,1.29.95,2.58,1.29,3.86s.5,2.52.49,3.71-.27,2.29-.78,3.3c-.51,1.01-1.37,1.87-2.56,2.58-1.87,1.11-3.7,1.47-5.49,1.07-1.79-.4-3.51-1.38-5.14-2.96-1.64-1.57-3.18-3.57-4.63-6.01Z"/>
    <path class="cls-2" d="M504.19,528.36c-2.63-2.48-4.53-5.04-5.7-7.68s-1.56-5.21-1.18-7.71c.38-2.5,1.58-4.82,3.6-6.96,2.02-2.13,4.26-3.46,6.74-3.99,2.48-.53,5.07-.28,7.77.74,2.7,1.02,5.36,2.77,8,5.25,2.67,2.52,4.58,5.09,5.74,7.72,1.16,2.63,1.55,5.19,1.17,7.7-.38,2.5-1.58,4.83-3.6,6.96-2.02,2.13-4.26,3.46-6.74,3.99-2.48.52-5.06.28-7.75-.72-2.69-1.01-5.37-2.77-8.04-5.29ZM508.27,524.04c1.03.97,2.08,1.73,3.17,2.29,1.08.55,2.15.88,3.21.98,1.06.1,2.08-.04,3.08-.42.99-.38,1.89-1,2.7-1.86l.65-.69c.79-.84,1.34-1.76,1.66-2.76.31-1,.39-2.03.23-3.08-.16-1.05-.55-2.1-1.16-3.15-.61-1.05-1.44-2.06-2.47-3.03-1.03-.97-2.08-1.73-3.15-2.27-1.07-.54-2.14-.87-3.21-.98-1.07-.11-2.09.03-3.06.41-.97.38-1.85.99-2.65,1.83l-.65.69c-.81.86-1.38,1.79-1.71,2.79-.33,1-.41,2.03-.24,3.09.17,1.06.56,2.11,1.16,3.15.6,1.04,1.42,2.04,2.45,3.02Z"/>
    <path class="cls-2" d="M536.89,553.21l12.77-23.85,7.04,3.77-9.72,18.17,15.32,8.2-3.04,5.69-22.36-11.97Z"/>
    <path class="cls-2" d="M593.38,576.81c-3.47-.84-6.21-2.03-8.23-3.59-2.03-1.55-3.37-3.43-4.02-5.62-.66-2.19-.66-4.64,0-7.34l3.36-13.91,7.76,1.87-3.28,13.57c-.57,2.35-.34,4.33.67,5.95,1.01,1.62,2.73,2.72,5.15,3.31,2.42.59,4.45.39,6.09-.59s2.74-2.64,3.31-4.99l3.28-13.57,7.8,1.88-3.36,13.91c-.65,2.7-1.77,4.88-3.36,6.53-1.59,1.65-3.64,2.71-6.16,3.16-2.52.46-5.52.27-8.98-.57Z"/>
    <path class="cls-2" d="M642.55,581.89l-.67-20.59-11.71.38-.21-6.45,31.44-1.03.21,6.45-11.71.38.67,20.59-8.02.26Z"/>
    <path class="cls-2" d="M683.04,577.2l-6.41-26.28,7.75-1.89,6.41,26.28-7.75,1.89Z"/>
    <path class="cls-2" d="M728.68,561.4c-3.23,1.62-6.29,2.54-9.17,2.73-2.88.2-5.43-.31-7.65-1.52-2.22-1.22-3.99-3.13-5.31-5.76-1.32-2.62-1.8-5.19-1.45-7.7.35-2.51,1.47-4.86,3.35-7.05,1.88-2.19,4.43-4.1,7.67-5.72,3.28-1.65,6.35-2.57,9.22-2.76,2.87-.19,5.41.32,7.63,1.53,2.22,1.22,4,3.14,5.31,5.76,1.32,2.62,1.8,5.19,1.45,7.7-.35,2.51-1.46,4.86-3.33,7.04-1.87,2.18-4.44,4.1-7.72,5.75ZM726.01,556.09c1.27-.64,2.34-1.37,3.23-2.2s1.56-1.72,2.02-2.69c.46-.96.67-1.97.65-3.03-.02-1.06-.29-2.12-.82-3.17l-.42-.84c-.52-1.03-1.19-1.87-2.03-2.5-.83-.64-1.77-1.06-2.82-1.27-1.05-.21-2.16-.2-3.36.02-1.2.22-2.42.65-3.69,1.28-1.27.64-2.34,1.37-3.21,2.19s-1.55,1.72-2.02,2.69c-.47.97-.69,1.98-.66,3.02.02,1.04.3,2.08.81,3.11l.42.84c.53,1.05,1.21,1.91,2.04,2.56.83.66,1.77,1.08,2.82,1.29,1.06.2,2.18.2,3.36-.02,1.18-.21,2.41-.64,3.67-1.27Z"/>
    <path class="cls-2" d="M763.72,539.12l-18.57-19.68,5.2-4.91,18.84-.43c.32,0,.74-.01,1.27,0s1.07.01,1.64.02,1.07.04,1.51.08l.26-.24c-.32-.34-.73-.77-1.23-1.27-.5-.51-.93-.96-1.31-1.36l-8.29-8.78,5.49-5.18,18.57,19.68-5.12,4.83-18.43.41c-.83.03-1.73.03-2.7,0-.96-.03-1.73-.04-2.31-.04l-.23.22c.24.25.62.64,1.15,1.19.53.54,1.09,1.13,1.69,1.76l8.04,8.52-5.49,5.18Z"/>
    <path class="cls-2" d="M810.18,485.44c-1.13,1.89-2.3,3.59-3.51,5.09-1.21,1.51-2.47,2.71-3.77,3.61-1.3.9-2.67,1.4-4.1,1.49-1.43.09-2.92-.33-4.47-1.26-.05-.03-.1-.06-.17-.1-.07-.04-.13-.09-.18-.15l4.04-6.75c.08.08.16.15.24.21.08.07.18.13.29.2.7.42,1.4.48,2.11.19.71-.29,1.43-.86,2.15-1.71s1.47-1.92,2.24-3.2c.31-.52.61-1.06.91-1.63.3-.57.56-1.14.79-1.7.23-.56.39-1.1.49-1.61s.09-.95,0-1.33c-.09-.38-.32-.68-.68-.89-.47-.28-1-.25-1.59.08-.58.34-1.23.9-1.93,1.69-.7.79-1.45,1.69-2.23,2.7-.79,1.01-1.63,2.04-2.52,3.1-.89,1.05-1.83,2.04-2.82,2.94-.99.91-2.01,1.64-3.08,2.19-1.06.55-2.18.83-3.34.84-1.16,0-2.35-.36-3.57-1.08-1.24-.74-2.11-1.69-2.63-2.84-.52-1.15-.73-2.46-.64-3.94.09-1.47.45-3.06,1.09-4.76.63-1.7,1.49-3.44,2.57-5.24,1.1-1.84,2.25-3.43,3.44-4.75,1.19-1.32,2.39-2.34,3.6-3.07,1.21-.72,2.43-1.11,3.63-1.17,1.21-.05,2.4.27,3.57.97l.47.28-3.98,6.64-.27-.16c-.47-.28-1.01-.33-1.63-.15-.61.18-1.26.6-1.94,1.25-.68.65-1.35,1.52-2.01,2.62-.8,1.33-1.37,2.47-1.71,3.42-.34.96-.5,1.72-.46,2.29.04.57.24.97.6,1.18.45.27.96.22,1.53-.14.57-.36,1.19-.93,1.88-1.72.68-.78,1.42-1.68,2.21-2.69.79-1.01,1.63-2.05,2.51-3.12s1.81-2.06,2.78-2.96c.97-.9,1.98-1.63,3.03-2.19s2.14-.85,3.28-.88c1.13-.02,2.29.32,3.48,1.03,1.87,1.12,3.05,2.56,3.55,4.33.5,1.77.45,3.74-.16,5.93s-1.64,4.49-3.1,6.92Z"/>
  </g>
  <g>
    <path class="cls-3" d="M606.24,403.03v-89.57h7.19v89.57h7.04v-89.57h2.11c5.74,0,10.4-4.66,10.4-10.4s-4.66-10.4-10.4-10.4h-65.84c-5.74,0-10.4,4.66-10.4,10.4,0,5.29,3.96,9.61,9.07,10.27v89.7h50.83Z"/>
    <path class="cls-3" d="M660.57,417.84h-105.16v-7.05h109.59c5.6,0,11.14-1.97,15.12-5.91.03-.03.06-.06.09-.09,1.23-1.23,2.34-2.64,3.24-4.14-2.7,7.92-8.82,17.19-22.88,17.19Z"/>
    <path class="cls-3" d="M751.8,389.04c0,48.23-39.11,87.31-87.31,87.31h-109.08v-51.35h105.16c16.68,0,26.15-10.98,26.15-35.96,0-12.27-9.96-22.25-22.22-22.25h-6.54v2.13c0,5.73-4.65,10.38-10.38,10.38s-10.41-4.65-10.41-10.38v-65.86c0-5.73,4.65-10.41,10.41-10.41,5.28,0,9.6,3.96,10.26,9.09h6.66c24.08,0,45.92,9.78,61.73,25.58,15.81,15.81,25.58,37.61,25.58,61.73Z"/>
  </g>
  <g>
    <circle class="cls-2" cx="458.95" cy="419.34" r="7.25"/>
    <circle class="cls-2" cx="821.05" cy="419.34" r="7.25"/>
  </g>
</svg>