<?xml version="1.0" encoding="UTF-8"?>
<svg id="Layer_1" data-name="Layer 1" xmlns="http://www.w3.org/2000/svg" version="1.1" viewBox="0 0 1280 769">
  <defs>
    <style>
      .cls-1 {
        fill: #0092d5;
      }

      .cls-1, .cls-2 {
        stroke-width: 0px;
      }

      .cls-2 {
        fill: #044e70;
      }
    </style>
  </defs>
  <g>
    <g>
      <g>
        <path class="cls-2" d="M363.86,390.56c2.69,0,4.99.94,6.91,2.82,1.92,1.88,2.88,4.17,2.88,6.85v61.28c0,2.69-.96,4.97-2.88,6.85-1.92,1.88-4.22,2.82-6.91,2.82h-43.08l2.76-4.15v-72.33l-2.76-4.15h43.08ZM356.94,457.25v-52.75h-16.7v52.75h16.7Z"/>
        <path class="cls-2" d="M435.15,410.02h-16.59v-5.53h-13.94v19.47h16.7l2.76,13.82h-19.47v19.47h13.94v-5.53h16.59v19.47h-49.99l2.76-4.15v-72.33l-2.76-4.15h49.99v19.47ZM418.91,365.91l-11.63,17.97-5.87-3.8,11.75-17.97,5.76,3.8Z"/>
        <path class="cls-2" d="M499.54,421.2c0,2.69-.96,4.97-2.88,6.85-1.92,1.88-4.22,2.82-6.91,2.82,2.69,0,4.99.94,6.91,2.82,1.92,1.88,2.88,4.17,2.88,6.85v20.96c0,2.69-.96,4.97-2.88,6.85-1.92,1.88-4.22,2.82-6.91,2.82h-43.08l2.76-4.15v-72.33l-2.76-4.15h43.08c2.69,0,4.99.94,6.91,2.82,1.92,1.88,2.88,4.17,2.88,6.85v20.96ZM482.84,423.96v-19.47h-16.7v19.47h16.7ZM482.84,457.25v-19.47h-16.7v19.47h16.7Z"/>
        <path class="cls-2" d="M551.37,390.56c2.69,0,4.97.94,6.85,2.82,1.88,1.88,2.82,4.17,2.82,6.85v61.28c0,2.69-.94,4.97-2.82,6.85s-4.17,2.82-6.85,2.82h-30.64c-2.69,0-4.97-.94-6.85-2.82-1.88-1.88-2.82-4.16-2.82-6.85v-61.28c0-2.69.94-4.97,2.82-6.85s4.16-2.82,6.85-2.82h30.64ZM544.46,457.25v-52.75h-16.7v52.75h16.7Z"/>
        <path class="cls-2" d="M605.96,390.56h22.23l-2.76,4.15v66.81c0,2.69-.96,4.97-2.88,6.85-1.92,1.88-4.22,2.82-6.91,2.82h-30.52c-2.69,0-4.99-.94-6.91-2.82-1.92-1.88-2.88-4.16-2.88-6.85v-66.81l-2.76-4.15h22.23l-2.76,4.15v62.54h16.7v-62.54l-2.76-4.15Z"/>
        <path class="cls-2" d="M689.7,418.32l-16.59,2.88v-16.7h-16.7v52.75h16.7v-13.82h16.59v18.08c0,2.69-.94,4.97-2.82,6.85-1.88,1.88-4.17,2.82-6.85,2.82h-30.64c-2.69,0-4.97-.94-6.85-2.82-1.88-1.88-2.82-4.16-2.82-6.85v-61.28c0-2.69.94-4.97,2.82-6.85,1.88-1.88,4.16-2.82,6.85-2.82h30.64c2.69,0,4.97.94,6.85,2.82,1.88,1.88,2.82,4.17,2.82,6.85v18.08Z"/>
        <path class="cls-2" d="M755.47,394.71v72.33l2.76,4.15h-22.23l2.76-4.15v-29.26h-18.08v29.26l2.76,4.15h-22.23l2.76-4.15v-72.33l-2.76-4.15h22.23l-2.76,4.15v29.26h18.08v-29.26l-2.76-4.15h22.23l-2.76,4.15Z"/>
        <path class="cls-2" d="M836.21,471.19h-23.61l2.65-3.57-2.07-7.6h-20.39l-2.07,7.6,2.65,3.57h-23.61l3.69-3.69,20.04-73.72-1.61-3.23h22.23l-1.61,3.23,20.04,73.72,3.69,3.69ZM796.59,446.19h12.9l-6.45-23.84-6.45,23.84Z"/>
        <path class="cls-2" d="M897.72,418.32l-16.59,2.88v-16.7h-16.7v52.75h16.7v-13.82h-8.41v-13.94h25v32.02c0,2.69-.94,4.97-2.82,6.85-1.88,1.88-4.17,2.82-6.85,2.82h-30.64c-2.69,0-4.97-.94-6.85-2.82-1.88-1.88-2.82-4.16-2.82-6.85v-61.28c0-2.69.94-4.97,2.82-6.85,1.88-1.88,4.16-2.82,6.85-2.82h30.64c2.69,0,4.97.94,6.85,2.82,1.88,1.88,2.82,4.17,2.82,6.85v18.08Z"/>
        <path class="cls-2" d="M959.22,410.02h-16.59v-5.53h-13.94v19.47h16.7l2.76,13.82h-19.47v19.47h13.94v-5.53h16.59v19.47h-49.99l2.76-4.15v-72.33l-2.76-4.15h49.99v19.47Z"/>
      </g>
      <g>
        <path class="cls-1" d="M470.95,500.03c.12.17.2.38.26.61.06.23.11.44.15.61.04.17.07.43.09.76.01.34.02.58.02.74s0,.46-.02.89c-.01.44-.02.74-.02.92v4.76c0,1.02-.36,1.88-1.07,2.6s-1.58,1.07-2.6,1.07h-11.62c-1.02,0-1.88-.36-2.6-1.07-.71-.71-1.07-1.58-1.07-2.6v-5.81h6.33v4.19h6.33v-4.45l-9.61-5.81c-.76-.47-1.33-.86-1.7-1.18-.38-.32-.67-.67-.87-1.05-.32-.64-.48-1.75-.48-3.32v-5.81c0-1.02.36-1.88,1.07-2.6.71-.71,1.58-1.07,2.6-1.07h11.62c1.02,0,1.88.36,2.6,1.07.71.71,1.07,1.58,1.07,2.6v4.76l-6.29,1.05v-4.19h-6.33v4.32l10.57,6.42c.73.44,1.25.96,1.57,1.57Z"/>
        <path class="cls-1" d="M512.95,482.43c1.02,0,1.88.36,2.6,1.07.71.71,1.07,1.58,1.07,2.6v23.23c0,1.02-.36,1.88-1.07,2.6s-1.58,1.07-2.6,1.07h-11.62c-1.02,0-1.88-.36-2.6-1.07-.71-.71-1.07-1.58-1.07-2.6v-23.23c0-1.02.36-1.88,1.07-2.6.71-.71,1.58-1.07,2.6-1.07h11.62ZM510.33,507.71v-20h-6.33v20h6.33Z"/>
        <path class="cls-1" d="M555.48,505.62h6.29v7.38h-18.95l1.05-1.57v-27.42l-1.05-1.57h8.43l-1.05,1.57v23.71h5.28v-2.1Z"/>
        <path class="cls-1" d="M600.63,482.43h8.43l-1.05,1.57v25.33c0,1.02-.36,1.88-1.09,2.6-.73.71-1.6,1.07-2.62,1.07h-11.57c-1.02,0-1.89-.36-2.62-1.07-.73-.71-1.09-1.58-1.09-2.6v-25.33l-1.05-1.57h8.43l-1.05,1.57v23.71h6.33v-23.71l-1.05-1.57Z"/>
        <path class="cls-1" d="M635.26,482.43h18.95v6.33l-1.57-1.05h-4.72v23.71l1.05,1.57h-8.43l1.05-1.57v-23.71h-4.76l-1.57,1.05v-6.33Z"/>
        <path class="cls-1" d="M687.79,484v27.42l1.05,1.57h-8.43l1.05-1.57v-27.42l-1.05-1.57h8.43l-1.05,1.57Z"/>
        <path class="cls-1" d="M730.32,482.43c1.02,0,1.88.36,2.6,1.07s1.07,1.58,1.07,2.6v23.23c0,1.02-.36,1.88-1.07,2.6-.71.71-1.58,1.07-2.6,1.07h-11.61c-1.02,0-1.88-.36-2.6-1.07-.71-.71-1.07-1.58-1.07-2.6v-23.23c0-1.02.36-1.88,1.07-2.6s1.58-1.07,2.6-1.07h11.61ZM727.7,507.71v-20h-6.33v20h6.33Z"/>
        <path class="cls-1" d="M773.9,482.43h8.43l-1.05,1.57v28.99h-6.33l-7.38-14.76v13.19l1.05,1.57h-8.43l1.05-1.57v-27.42l-1.05-1.57h7.38l7.38,15.81v-14.24l-1.05-1.57Z"/>
        <path class="cls-1" d="M827,500.03c.12.17.2.38.26.61s.11.44.15.61c.04.17.07.43.09.76.01.34.02.58.02.74s0,.46-.02.89c-.02.44-.02.74-.02.92v4.76c0,1.02-.36,1.88-1.07,2.6-.71.71-1.58,1.07-2.6,1.07h-11.61c-1.02,0-1.88-.36-2.6-1.07-.71-.71-1.07-1.58-1.07-2.6v-5.81h6.33v4.19h6.33v-4.45l-9.61-5.81c-.76-.47-1.32-.86-1.7-1.18-.38-.32-.67-.67-.87-1.05-.32-.64-.48-1.75-.48-3.32v-5.81c0-1.02.36-1.88,1.07-2.6s1.58-1.07,2.6-1.07h11.61c1.02,0,1.88.36,2.6,1.07s1.07,1.58,1.07,2.6v4.76l-6.29,1.05v-4.19h-6.33v4.32l10.57,6.42c.73.44,1.25.96,1.57,1.57Z"/>
      </g>
      <g>
        <path class="cls-1" d="M609.4,311.55v-58.95h4.73v58.95h4.63v-58.95h1.39c3.78,0,6.85-3.06,6.85-6.84s-3.06-6.84-6.85-6.84h-43.33c-3.78,0-6.84,3.06-6.84,6.84,0,3.48,2.61,6.32,5.97,6.76v59.04h33.45Z"/>
        <path class="cls-1" d="M661.61,321.29h-85.67v-4.64h88.59c3.69,0,7.33-1.3,9.95-3.89.02-.02.04-.04.06-.06.81-.81,1.54-1.74,2.13-2.72-1.78,5.21-5.8,11.31-15.06,11.31Z"/>
        <path class="cls-1" d="M721.66,302.34c0,31.74-25.74,57.46-57.46,57.46h-88.25v-33.79h85.67c10.97,0,17.21-7.22,17.21-23.67,0-8.07-6.55-14.65-14.63-14.65h-20.77v1.4c0,3.77-3.06,6.83-6.83,6.83s-6.85-3.06-6.85-6.83v-43.35c0-3.77,3.06-6.85,6.85-6.85,3.47,0,6.32,2.61,6.75,5.98h20.84c15.85,0,30.22,6.43,40.62,16.84,10.4,10.4,16.84,24.75,16.84,40.62Z"/>
      </g>
    </g>
    <g>
      <path class="cls-2" d="M456.28,375.66c4.63-97.34,85.26-175.1,183.72-175.1s179.1,77.77,183.72,175.1h7.37c-4.63-101.4-88.57-182.47-191.1-182.47s-186.46,81.07-191.1,182.47h7.37Z"/>
      <path class="cls-2" d="M755.04,527.91c-31.53,25.34-71.54,40.53-115.04,40.53s-83.52-15.19-115.04-40.53h-11.43c33.74,29.79,78.03,47.9,126.47,47.9s92.73-18.11,126.47-47.9h-11.43Z"/>
      <path class="cls-2" d="M732.77,527.91c-26.73,17.35-58.59,27.45-92.77,27.45s-66.04-10.09-92.77-27.45h-6.6c28.22,19.61,62.47,31.13,99.37,31.13s71.15-11.52,99.37-31.13h-6.6Z"/>
      <path class="cls-2" d="M469.37,375.66c4.61-90.12,79.38-162.02,170.63-162.02s166.02,71.9,170.63,162.02h3.69c-4.62-92.15-81.04-165.7-174.32-165.7s-169.7,73.55-174.32,165.7h3.69Z"/>
    </g>
  </g>
  <g>
    <rect class="cls-2" x="428.68" y="372.15" width="95.33" height="4.33" rx="2.16" ry="2.16"/>
    <rect class="cls-2" x="755.99" y="372.15" width="95.33" height="4.33" rx="2.16" ry="2.16"/>
  </g>
  <g>
    <rect class="cls-2" x="465.59" y="527.41" width="95.33" height="4.33" rx="2.16" ry="2.16"/>
    <rect class="cls-2" x="719.08" y="527.41" width="95.33" height="4.33" rx="2.16" ry="2.16"/>
  </g>
</svg>